{
    "asset" : {
        "generator" : "Khronos glTF Blender I/O v1.4.40",
        "version" : "2.0"
    },
    "scene" : 0,
    "scenes" : [
        {
            "name" : "Scene",
            "nodes" : [
                0,
                1,
                2
            ]
        }
    ],
    "nodes" : [
        {
            "name" : "Light",
            "rotation" : [
                0.16907575726509094,
                0.7558803558349609,
                -0.27217137813568115,
                0.570947527885437
            ],
            "translation" : [
                4.076245307922363,
                5.903861999511719,
                -1.0054539442062378
            ]
        },
        {
            "name" : "Camera",
            "rotation" : [
                0.483536034822464,
                0.33687159419059753,
                -0.20870360732078552,
                0.7804827094078064
            ],
            "translation" : [
                7.358891487121582,
                4.958309173583984,
                6.925790786743164
            ]
        },
        {
            "mesh" : 0,
            "name" : "MAIN_BODY_IndexedFaceSet",
            "rotation" : [
                0.7070005536079407,
                0,
                0,
                0.7072129845619202
            ]
        }
    ],
    "materials" : [
        {
            "alphaMode" : "BLEND",
            "doubleSided" : true,
            "name" : "MainBody",
            "pbrMetallicRoughness" : {
                "baseColorFactor" : [
                    0.800000011920929,
                    0.800000011920929,
                    0.800000011920929,
                    0.5833333730697632
                ],
                "metallicFactor" : 0,
                "roughnessFactor" : 0.5
            }
        },
        {
            "alphaMode" : "BLEND",
            "doubleSided" : true,
            "name" : "UpperPart",
            "pbrMetallicRoughness" : {
                "baseColorFactor" : [
                    0.480355829000473,
                    0.6651546955108643,
                    0.8000000715255737,
                    0.523809552192688
                ],
                "metallicFactor" : 0,
                "roughnessFactor" : 0.5
            }
        },
        {
            "alphaMode" : "BLEND",
            "doubleSided" : true,
            "name" : "Button1",
            "pbrMetallicRoughness" : {
                "baseColorFactor" : [
                    0.0835299864411354,
                    0.0835299864411354,
                    0.0835299864411354,
                    0.488095223903656
                ],
                "metallicFactor" : 0,
                "roughnessFactor" : 0.5
            }
        },
        {
            "alphaMode" : "BLEND",
            "doubleSided" : true,
            "name" : "button2",
            "pbrMetallicRoughness" : {
                "baseColorFactor" : [
                    0.8000000715255737,
                    0.015741879120469093,
                    0.023663967847824097,
                    0.714285671710968
                ],
                "metallicFactor" : 0,
                "roughnessFactor" : 0.5
            }
        },
        {
            "alphaMode" : "BLEND",
            "doubleSided" : true,
            "name" : "Bumpers",
            "pbrMetallicRoughness" : {
                "baseColorFactor" : [
                    0.36894935369491577,
                    0.8000000715255737,
                    0.3354916572570801,
                    0.3809523582458496
                ],
                "metallicFactor" : 0,
                "roughnessFactor" : 0.5
            }
        },
        {
            "doubleSided" : true,
            "name" : "Wheels2",
            "pbrMetallicRoughness" : {
                "baseColorFactor" : [
                    0.800000011920929,
                    0.800000011920929,
                    0.800000011920929,
                    1
                ],
                "metallicFactor" : 0,
                "roughnessFactor" : 0.5
            }
        },
        {
            "doubleSided" : true,
            "name" : "Wheels",
            "pbrMetallicRoughness" : {
                "baseColorFactor" : [
                    0.023650577291846275,
                    0.023650577291846275,
                    0.023650577291846275,
                    1
                ],
                "metallicFactor" : 0,
                "roughnessFactor" : 0.5
            }
        }
    ],
    "meshes" : [
        {
            "name" : "MAIN_BODY_IndexedFaceSet",
            "primitives" : [
                {
                    "attributes" : {
                        "POSITION" : 0,
                        "NORMAL" : 1,
                        "TEXCOORD_0" : 2
                    },
                    "indices" : 3,
                    "material" : 0
                },
                {
                    "attributes" : {
                        "POSITION" : 4,
                        "NORMAL" : 5,
                        "TEXCOORD_0" : 6
                    },
                    "indices" : 7,
                    "material" : 1
                },
                {
                    "attributes" : {
                        "POSITION" : 8,
                        "NORMAL" : 9,
                        "TEXCOORD_0" : 10
                    },
                    "indices" : 11,
                    "material" : 2
                },
                {
                    "attributes" : {
                        "POSITION" : 12,
                        "NORMAL" : 13,
                        "TEXCOORD_0" : 14
                    },
                    "indices" : 15,
                    "material" : 3
                },
                {
                    "attributes" : {
                        "POSITION" : 16,
                        "NORMAL" : 17,
                        "TEXCOORD_0" : 18
                    },
                    "indices" : 19,
                    "material" : 4
                },
                {
                    "attributes" : {
                        "POSITION" : 20,
                        "NORMAL" : 21,
                        "TEXCOORD_0" : 22
                    },
                    "indices" : 23,
                    "material" : 5
                },
                {
                    "attributes" : {
                        "POSITION" : 24,
                        "NORMAL" : 25,
                        "TEXCOORD_0" : 26
                    },
                    "indices" : 27,
                    "material" : 6
                }
            ]
        }
    ],
    "accessors" : [
        {
            "bufferView" : 0,
            "componentType" : 5126,
            "count" : 496,
            "max" : [
                0.03395500034093857,
                0.044470999389886856,
                0.02206600084900856
            ],
            "min" : [
                -0.03395500034093857,
                -0.045499999076128006,
                -0.01915300078690052
            ],
            "type" : "VEC3"
        },
        {
            "bufferView" : 1,
            "componentType" : 5126,
            "count" : 496,
            "type" : "VEC3"
        },
        {
            "bufferView" : 2,
            "componentType" : 5126,
            "count" : 496,
            "type" : "VEC2"
        },
        {
            "bufferView" : 3,
            "componentType" : 5123,
            "count" : 726,
            "type" : "SCALAR"
        },
        {
            "bufferView" : 4,
            "componentType" : 5126,
            "count" : 348,
            "max" : [
                0.0340920016169548,
                0.030000001192092896,
                0.0020110029727220535
            ],
            "min" : [
                -0.0340920016169548,
                -0.029999997466802597,
                -0.025499999523162842
            ],
            "type" : "VEC3"
        },
        {
            "bufferView" : 5,
            "componentType" : 5126,
            "count" : 348,
            "type" : "VEC3"
        },
        {
            "bufferView" : 6,
            "componentType" : 5126,
            "count" : 348,
            "type" : "VEC2"
        },
        {
            "bufferView" : 7,
            "componentType" : 5123,
            "count" : 594,
            "type" : "SCALAR"
        },
        {
            "bufferView" : 8,
            "componentType" : 5126,
            "count" : 44,
            "max" : [
                0.027999991551041603,
                -0.019999999552965164,
                -0.0010000006295740604
            ],
            "min" : [
                0.021999990567564964,
                -0.026000000536441803,
                -0.005000000819563866
            ],
            "type" : "VEC3"
        },
        {
            "bufferView" : 9,
            "componentType" : 5126,
            "count" : 44,
            "type" : "VEC3"
        },
        {
            "bufferView" : 10,
            "componentType" : 5126,
            "count" : 44,
            "type" : "VEC2"
        },
        {
            "bufferView" : 11,
            "componentType" : 5123,
            "count" : 90,
            "type" : "SCALAR"
        },
        {
            "bufferView" : 12,
            "componentType" : 5126,
            "count" : 80,
            "max" : [
                0.026499975472688675,
                -0.0215000007301569,
                -0.005000000819563866
            ],
            "min" : [
                0.023499976843595505,
                -0.02449999935925007,
                -0.00800000037997961
            ],
            "type" : "VEC3"
        },
        {
            "bufferView" : 13,
            "componentType" : 5126,
            "count" : 80,
            "type" : "VEC3"
        },
        {
            "bufferView" : 14,
            "componentType" : 5126,
            "count" : 80,
            "type" : "VEC2"
        },
        {
            "bufferView" : 15,
            "componentType" : 5123,
            "count" : 138,
            "type" : "SCALAR"
        },
        {
            "bufferView" : 16,
            "componentType" : 5126,
            "count" : 282,
            "max" : [
                0.0516437403857708,
                0.05795278400182724,
                0.0029046903364360332
            ],
            "min" : [
                -0.05154401436448097,
                0.03918427228927612,
                -0.004899431951344013
            ],
            "type" : "VEC3"
        },
        {
            "bufferView" : 17,
            "componentType" : 5126,
            "count" : 282,
            "type" : "VEC3"
        },
        {
            "bufferView" : 18,
            "componentType" : 5126,
            "count" : 282,
            "type" : "VEC2"
        },
        {
            "bufferView" : 19,
            "componentType" : 5123,
            "count" : 288,
            "type" : "SCALAR"
        },
        {
            "bufferView" : 20,
            "componentType" : 5126,
            "count" : 1123,
            "max" : [
                0.04133501648902893,
                0.021798009052872658,
                0.01895659789443016
            ],
            "min" : [
                -0.04137400537729263,
                0.0016746018081903458,
                -0.0012029260396957397
            ],
            "type" : "VEC3"
        },
        {
            "bufferView" : 21,
            "componentType" : 5126,
            "count" : 1123,
            "type" : "VEC3"
        },
        {
            "bufferView" : 22,
            "componentType" : 5126,
            "count" : 1123,
            "type" : "VEC2"
        },
        {
            "bufferView" : 23,
            "componentType" : 5123,
            "count" : 1140,
            "type" : "SCALAR"
        },
        {
            "bufferView" : 24,
            "componentType" : 5126,
            "count" : 1684,
            "max" : [
                0.041355032473802567,
                0.02541494369506836,
                0.022414948791265488
            ],
            "min" : [
                -0.04135499149560928,
                -0.0014149490743875504,
                -0.004414948634803295
            ],
            "type" : "VEC3"
        },
        {
            "bufferView" : 25,
            "componentType" : 5126,
            "count" : 1684,
            "type" : "VEC3"
        },
        {
            "bufferView" : 26,
            "componentType" : 5126,
            "count" : 1684,
            "type" : "VEC2"
        },
        {
            "bufferView" : 27,
            "componentType" : 5123,
            "count" : 1728,
            "type" : "SCALAR"
        }
    ],
    "bufferViews" : [
        {
            "buffer" : 0,
            "byteLength" : 5952,
            "byteOffset" : 0
        },
        {
            "buffer" : 0,
            "byteLength" : 5952,
            "byteOffset" : 5952
        },
        {
            "buffer" : 0,
            "byteLength" : 3968,
            "byteOffset" : 11904
        },
        {
            "buffer" : 0,
            "byteLength" : 1452,
            "byteOffset" : 15872
        },
        {
            "buffer" : 0,
            "byteLength" : 4176,
            "byteOffset" : 17324
        },
        {
            "buffer" : 0,
            "byteLength" : 4176,
            "byteOffset" : 21500
        },
        {
            "buffer" : 0,
            "byteLength" : 2784,
            "byteOffset" : 25676
        },
        {
            "buffer" : 0,
            "byteLength" : 1188,
            "byteOffset" : 28460
        },
        {
            "buffer" : 0,
            "byteLength" : 528,
            "byteOffset" : 29648
        },
        {
            "buffer" : 0,
            "byteLength" : 528,
            "byteOffset" : 30176
        },
        {
            "buffer" : 0,
            "byteLength" : 352,
            "byteOffset" : 30704
        },
        {
            "buffer" : 0,
            "byteLength" : 180,
            "byteOffset" : 31056
        },
        {
            "buffer" : 0,
            "byteLength" : 960,
            "byteOffset" : 31236
        },
        {
            "buffer" : 0,
            "byteLength" : 960,
            "byteOffset" : 32196
        },
        {
            "buffer" : 0,
            "byteLength" : 640,
            "byteOffset" : 33156
        },
        {
            "buffer" : 0,
            "byteLength" : 276,
            "byteOffset" : 33796
        },
        {
            "buffer" : 0,
            "byteLength" : 3384,
            "byteOffset" : 34072
        },
        {
            "buffer" : 0,
            "byteLength" : 3384,
            "byteOffset" : 37456
        },
        {
            "buffer" : 0,
            "byteLength" : 2256,
            "byteOffset" : 40840
        },
        {
            "buffer" : 0,
            "byteLength" : 576,
            "byteOffset" : 43096
        },
        {
            "buffer" : 0,
            "byteLength" : 13476,
            "byteOffset" : 43672
        },
        {
            "buffer" : 0,
            "byteLength" : 13476,
            "byteOffset" : 57148
        },
        {
            "buffer" : 0,
            "byteLength" : 8984,
            "byteOffset" : 70624
        },
        {
            "buffer" : 0,
            "byteLength" : 2280,
            "byteOffset" : 79608
        },
        {
            "buffer" : 0,
            "byteLength" : 20208,
            "byteOffset" : 81888
        },
        {
            "buffer" : 0,
            "byteLength" : 20208,
            "byteOffset" : 102096
        },
        {
            "buffer" : 0,
            "byteLength" : 13472,
            "byteOffset" : 122304
        },
        {
            "buffer" : 0,
            "byteLength" : 3456,
            "byteOffset" : 135776
        }
    ],
    "buffers" : [
        {
            "byteLength" : 139232,
            "uri" : "data:application/octet-stream;base64,"
        }
    ]
}
