{
    "asset" : {
        "generator" : "Khronos glTF Blender I/O v1.6.16",
        "version" : "2.0"
    },
    "scene" : 0,
    "scenes" : [
        {
            "name" : "Scene",
            "nodes" : [
                0
            ]
        }
    ],
    "nodes" : [
        {
            "mesh" : 0,
            "name" : "Shape_IndexedFaceSet.002",
            "rotation" : [
                0.7070004940032959,
                0,
                0,
                0.7072130441665649
            ]
        }
    ],
    "materials" : [
        {
            "alphaMode" : "BLEND",
            "doubleSided" : true,
            "name" : "MainBody",
            "pbrMetallicRoughness" : {
                "baseColorFactor" : [
                    0.800000011920929,
                    0.800000011920929,
                    0.800000011920929,
                    0.5833333730697632
                ],
                "metallicFactor" : 0,
                "roughnessFactor" : 0.5
            }
        },
        {
            "alphaMode" : "BLEND",
            "doubleSided" : true,
            "name" : "UpperPart",
            "pbrMetallicRoughness" : {
                "baseColorFactor" : [
                    0.480355829000473,
                    0.6651546955108643,
                    0.8000000715255737,
                    0.523809552192688
                ],
                "metallicFactor" : 0,
                "roughnessFactor" : 0.5
            }
        },
        {
            "alphaMode" : "BLEND",
            "doubleSided" : true,
            "name" : "Button1",
            "pbrMetallicRoughness" : {
                "baseColorFactor" : [
                    0.0835299864411354,
                    0.0835299864411354,
                    0.0835299864411354,
                    0.488095223903656
                ],
                "metallicFactor" : 0,
                "roughnessFactor" : 0.5
            }
        },
        {
            "alphaMode" : "BLEND",
            "doubleSided" : true,
            "name" : "button2",
            "pbrMetallicRoughness" : {
                "baseColorFactor" : [
                    0.8000000715255737,
                    0.015741879120469093,
                    0.023663967847824097,
                    0.714285671710968
                ],
                "metallicFactor" : 0,
                "roughnessFactor" : 0.5
            }
        },
        {
            "alphaMode" : "BLEND",
            "doubleSided" : true,
            "name" : "Bumpers",
            "pbrMetallicRoughness" : {
                "baseColorFactor" : [
                    0.36894935369491577,
                    0.8000000715255737,
                    0.3354916572570801,
                    0.3809523582458496
                ],
                "metallicFactor" : 0,
                "roughnessFactor" : 0.5
            }
        },
        {
            "doubleSided" : true,
            "name" : "Wheels2",
            "pbrMetallicRoughness" : {
                "baseColorFactor" : [
                    0.800000011920929,
                    0.800000011920929,
                    0.800000011920929,
                    1
                ],
                "metallicFactor" : 0,
                "roughnessFactor" : 0.5
            }
        },
        {
            "doubleSided" : true,
            "name" : "Wheels",
            "pbrMetallicRoughness" : {
                "baseColorFactor" : [
                    0.023650577291846275,
                    0.023650577291846275,
                    0.023650577291846275,
                    1
                ],
                "metallicFactor" : 0,
                "roughnessFactor" : 0.5
            }
        }
    ],
    "meshes" : [
        {
            "name" : "Shape_IndexedFaceSet.002",
            "primitives" : [
                {
                    "attributes" : {
                        "POSITION" : 0,
                        "NORMAL" : 1,
                        "TEXCOORD_0" : 2
                    },
                    "indices" : 3,
                    "material" : 0
                },
                {
                    "attributes" : {
                        "POSITION" : 4,
                        "NORMAL" : 5,
                        "TEXCOORD_0" : 6
                    },
                    "indices" : 7,
                    "material" : 1
                },
                {
                    "attributes" : {
                        "POSITION" : 8,
                        "NORMAL" : 9,
                        "TEXCOORD_0" : 10
                    },
                    "indices" : 11,
                    "material" : 2
                },
                {
                    "attributes" : {
                        "POSITION" : 12,
                        "NORMAL" : 13,
                        "TEXCOORD_0" : 14
                    },
                    "indices" : 15,
                    "material" : 3
                },
                {
                    "attributes" : {
                        "POSITION" : 16,
                        "NORMAL" : 17,
                        "TEXCOORD_0" : 18
                    },
                    "indices" : 19,
                    "material" : 4
                },
                {
                    "attributes" : {
                        "POSITION" : 20,
                        "NORMAL" : 21,
                        "TEXCOORD_0" : 22
                    },
                    "indices" : 23,
                    "material" : 5
                },
                {
                    "attributes" : {
                        "POSITION" : 24,
                        "NORMAL" : 25,
                        "TEXCOORD_0" : 26
                    },
                    "indices" : 27,
                    "material" : 6
                }
            ]
        }
    ],
    "accessors" : [
        {
            "bufferView" : 0,
            "componentType" : 5126,
            "count" : 787,
            "max" : [
                0.03395500034093857,
                0.04650000110268593,
                0.022065995261073112
            ],
            "min" : [
                -0.03395500034093857,
                -0.045499999076128006,
                -0.01915300451219082
            ],
            "type" : "VEC3"
        },
        {
            "bufferView" : 1,
            "componentType" : 5126,
            "count" : 787,
            "type" : "VEC3"
        },
        {
            "bufferView" : 2,
            "componentType" : 5126,
            "count" : 787,
            "type" : "VEC2"
        },
        {
            "bufferView" : 3,
            "componentType" : 5123,
            "count" : 846,
            "type" : "SCALAR"
        },
        {
            "bufferView" : 4,
            "componentType" : 5126,
            "count" : 581,
            "max" : [
                0.0340920016169548,
                0.030000004917383194,
                0.0020110057666897774
            ],
            "min" : [
                -0.0340920016169548,
                -0.0299999937415123,
                -0.02550000511109829
            ],
            "type" : "VEC3"
        },
        {
            "bufferView" : 5,
            "componentType" : 5126,
            "count" : 581,
            "type" : "VEC3"
        },
        {
            "bufferView" : 6,
            "componentType" : 5126,
            "count" : 581,
            "type" : "VEC2"
        },
        {
            "bufferView" : 7,
            "componentType" : 5123,
            "count" : 594,
            "type" : "SCALAR"
        },
        {
            "bufferView" : 8,
            "componentType" : 5126,
            "count" : 80,
            "max" : [
                0.027999991551041603,
                -0.019999999552965164,
                -0.0010000040056183934
            ],
            "min" : [
                0.021999990567564964,
                -0.026000000536441803,
                -0.005000005010515451
            ],
            "type" : "VEC3"
        },
        {
            "bufferView" : 9,
            "componentType" : 5126,
            "count" : 80,
            "type" : "VEC3"
        },
        {
            "bufferView" : 10,
            "componentType" : 5126,
            "count" : 80,
            "type" : "VEC2"
        },
        {
            "bufferView" : 11,
            "componentType" : 5123,
            "count" : 90,
            "type" : "SCALAR"
        },
        {
            "bufferView" : 12,
            "componentType" : 5126,
            "count" : 124,
            "max" : [
                0.026499975472688675,
                -0.02149999886751175,
                -0.005000004544854164
            ],
            "min" : [
                0.023499976843595505,
                -0.02449999935925007,
                -0.008000004105269909
            ],
            "type" : "VEC3"
        },
        {
            "bufferView" : 13,
            "componentType" : 5126,
            "count" : 124,
            "type" : "VEC3"
        },
        {
            "bufferView" : 14,
            "componentType" : 5126,
            "count" : 124,
            "type" : "VEC2"
        },
        {
            "bufferView" : 15,
            "componentType" : 5123,
            "count" : 138,
            "type" : "SCALAR"
        },
        {
            "bufferView" : 16,
            "componentType" : 5126,
            "count" : 286,
            "max" : [
                0.0516437403857708,
                0.05795278400182724,
                0.0029046994168311357
            ],
            "min" : [
                -0.05154401436448097,
                0.03918427228927612,
                -0.004899423103779554
            ],
            "type" : "VEC3"
        },
        {
            "bufferView" : 17,
            "componentType" : 5126,
            "count" : 286,
            "type" : "VEC3"
        },
        {
            "bufferView" : 18,
            "componentType" : 5126,
            "count" : 286,
            "type" : "VEC2"
        },
        {
            "bufferView" : 19,
            "componentType" : 5123,
            "count" : 288,
            "type" : "SCALAR"
        },
        {
            "bufferView" : 20,
            "componentType" : 5126,
            "count" : 1126,
            "max" : [
                0.04133501648902893,
                0.02179800719022751,
                0.01895659975707531
            ],
            "min" : [
                -0.04137400537729263,
                0.0016746004112064838,
                -0.0012029240606352687
            ],
            "type" : "VEC3"
        },
        {
            "bufferView" : 21,
            "componentType" : 5126,
            "count" : 1126,
            "type" : "VEC3"
        },
        {
            "bufferView" : 22,
            "componentType" : 5126,
            "count" : 1126,
            "type" : "VEC2"
        },
        {
            "bufferView" : 23,
            "componentType" : 5123,
            "count" : 1140,
            "type" : "SCALAR"
        },
        {
            "bufferView" : 24,
            "componentType" : 5126,
            "count" : 1711,
            "max" : [
                0.041355032473802567,
                0.02541494183242321,
                0.022414950653910637
            ],
            "min" : [
                -0.04135499149560928,
                -0.0014149504713714123,
                -0.004414946772158146
            ],
            "type" : "VEC3"
        },
        {
            "bufferView" : 25,
            "componentType" : 5126,
            "count" : 1711,
            "type" : "VEC3"
        },
        {
            "bufferView" : 26,
            "componentType" : 5126,
            "count" : 1711,
            "type" : "VEC2"
        },
        {
            "bufferView" : 27,
            "componentType" : 5123,
            "count" : 1728,
            "type" : "SCALAR"
        }
    ],
    "bufferViews" : [
        {
            "buffer" : 0,
            "byteLength" : 9444,
            "byteOffset" : 0
        },
        {
            "buffer" : 0,
            "byteLength" : 9444,
            "byteOffset" : 9444
        },
        {
            "buffer" : 0,
            "byteLength" : 6296,
            "byteOffset" : 18888
        },
        {
            "buffer" : 0,
            "byteLength" : 1692,
            "byteOffset" : 25184
        },
        {
            "buffer" : 0,
            "byteLength" : 6972,
            "byteOffset" : 26876
        },
        {
            "buffer" : 0,
            "byteLength" : 6972,
            "byteOffset" : 33848
        },
        {
            "buffer" : 0,
            "byteLength" : 4648,
            "byteOffset" : 40820
        },
        {
            "buffer" : 0,
            "byteLength" : 1188,
            "byteOffset" : 45468
        },
        {
            "buffer" : 0,
            "byteLength" : 960,
            "byteOffset" : 46656
        },
        {
            "buffer" : 0,
            "byteLength" : 960,
            "byteOffset" : 47616
        },
        {
            "buffer" : 0,
            "byteLength" : 640,
            "byteOffset" : 48576
        },
        {
            "buffer" : 0,
            "byteLength" : 180,
            "byteOffset" : 49216
        },
        {
            "buffer" : 0,
            "byteLength" : 1488,
            "byteOffset" : 49396
        },
        {
            "buffer" : 0,
            "byteLength" : 1488,
            "byteOffset" : 50884
        },
        {
            "buffer" : 0,
            "byteLength" : 992,
            "byteOffset" : 52372
        },
        {
            "buffer" : 0,
            "byteLength" : 276,
            "byteOffset" : 53364
        },
        {
            "buffer" : 0,
            "byteLength" : 3432,
            "byteOffset" : 53640
        },
        {
            "buffer" : 0,
            "byteLength" : 3432,
            "byteOffset" : 57072
        },
        {
            "buffer" : 0,
            "byteLength" : 2288,
            "byteOffset" : 60504
        },
        {
            "buffer" : 0,
            "byteLength" : 576,
            "byteOffset" : 62792
        },
        {
            "buffer" : 0,
            "byteLength" : 13512,
            "byteOffset" : 63368
        },
        {
            "buffer" : 0,
            "byteLength" : 13512,
            "byteOffset" : 76880
        },
        {
            "buffer" : 0,
            "byteLength" : 9008,
            "byteOffset" : 90392
        },
        {
            "buffer" : 0,
            "byteLength" : 2280,
            "byteOffset" : 99400
        },
        {
            "buffer" : 0,
            "byteLength" : 20532,
            "byteOffset" : 101680
        },
        {
            "buffer" : 0,
            "byteLength" : 20532,
            "byteOffset" : 122212
        },
        {
            "buffer" : 0,
            "byteLength" : 13688,
            "byteOffset" : 142744
        },
        {
            "buffer" : 0,
            "byteLength" : 3456,
            "byteOffset" : 156432
        }
    ],
    "buffers" : [
        {
            "byteLength" : 159888,
            "uri" : "data:application/octet-stream;base64,"
        }
    ]
}
