{
    "asset" : {
        "generator" : "Khronos glTF Blender I/O v1.4.40",
        "version" : "2.0"
    },
    "scene" : 0,
    "scenes" : [
        {
            "name" : "Scene",
            "nodes" : [
                0,
                1,
                2
            ]
        }
    ],
    "nodes" : [
        {
            "name" : "Light",
            "rotation" : [
                0.16907575726509094,
                0.7558803558349609,
                -0.27217137813568115,
                0.570947527885437
            ],
            "translation" : [
                4.076245307922363,
                5.903861999511719,
                -1.0054539442062378
            ]
        },
        {
            "name" : "Camera",
            "rotation" : [
                0.483536034822464,
                0.33687159419059753,
                -0.20870360732078552,
                0.7804827094078064
            ],
            "translation" : [
                7.358891487121582,
                4.958309173583984,
                6.925790786743164
            ]
        },
        {
            "mesh" : 0,
            "name" : "placa_Cylinder",
            "rotation" : [
                0.015691783279180527,
                -0.7070388197898865,
                0.706826388835907,
                0.015696212649345398
            ],
            "translation" : [
                0.1881805807352066,
                0.04518155753612518,
                -0.011223199777305126
            ]
        }
    ],
    "meshes" : [
        {
            "name" : "placa_Cylinder",
            "primitives" : [
                {
                    "attributes" : {
                        "POSITION" : 0,
                        "NORMAL" : 1,
                        "TEXCOORD_0" : 2
                    },
                    "indices" : 3
                }
            ]
        }
    ],
    "accessors" : [
        {
            "bufferView" : 0,
            "componentType" : 5126,
            "count" : 3946,
            "max" : [
                0.0516437403857708,
                0.05795278400182724,
                0.046414948999881744
            ],
            "min" : [
                -0.05154401436448097,
                -0.045499999076128006,
                -0.001500000013038516
            ],
            "type" : "VEC3"
        },
        {
            "bufferView" : 1,
            "componentType" : 5126,
            "count" : 3946,
            "type" : "VEC3"
        },
        {
            "bufferView" : 2,
            "componentType" : 5126,
            "count" : 3946,
            "type" : "VEC2"
        },
        {
            "bufferView" : 3,
            "componentType" : 5123,
            "count" : 4314,
            "type" : "SCALAR"
        }
    ],
    "bufferViews" : [
        {
            "buffer" : 0,
            "byteLength" : 47352,
            "byteOffset" : 0
        },
        {
            "buffer" : 0,
            "byteLength" : 47352,
            "byteOffset" : 47352
        },
        {
            "buffer" : 0,
            "byteLength" : 31568,
            "byteOffset" : 94704
        },
        {
            "buffer" : 0,
            "byteLength" : 8628,
            "byteOffset" : 126272
        }
    ],
    "buffers" : [
        {
            "byteLength" : 134900,
            "uri" : "data:application/octet-stream;base64,"
        }
    ]
}
